<?xml version="1.0" encoding="UTF-8"?>
<!-- This file is generated by npm run build:icons -->
<svg xmlns="http://www.w3.org/2000/svg" xmlns:xlink="http://www.w3.org/1999/xlink" width="0" height="0">
<defs>
<symbol viewBox="0 0 24 24" fill="currentColor" id="arrow"><g id="SVGRepo_bgCarrier" stroke-width="0"></g><g id="SVGRepo_tracerCarrier" stroke-linecap="round" stroke-linejoin="round"></g><g id="SVGRepo_iconCarrier"> <path d="M5.70711 9.71069C5.31658 10.1012 5.31658 10.7344 5.70711 11.1249L10.5993 16.0123C11.3805 16.7927 12.6463 16.7924 13.4271 16.0117L18.3174 11.1213C18.708 10.7308 18.708 10.0976 18.3174 9.70708C17.9269 9.31655 17.2937 9.31655 16.9032 9.70708L12.7176 13.8927C12.3271 14.2833 11.6939 14.2832 11.3034 13.8927L7.12132 9.71069C6.7308 9.32016 6.09763 9.32016 5.70711 9.71069Z"></path> </g></symbol>
<symbol id="email" viewBox="0 0 512 512" xml:space="preserve" fill="currentColor">
<g>
	<path class="st0" d="M510.678,112.275c-2.308-11.626-7.463-22.265-14.662-31.054c-1.518-1.915-3.104-3.63-4.823-5.345
		c-12.755-12.818-30.657-20.814-50.214-20.814H71.021c-19.557,0-37.395,7.996-50.21,20.814c-1.715,1.715-3.301,3.43-4.823,5.345
		C8.785,90.009,3.63,100.649,1.386,112.275C0.464,116.762,0,121.399,0,126.087V385.92c0,9.968,2.114,19.55,5.884,28.203
		c3.497,8.26,8.653,15.734,14.926,22.001c1.59,1.586,3.169,3.044,4.892,4.494c12.286,10.175,28.145,16.32,45.319,16.32h369.958
		c17.18,0,33.108-6.145,45.323-16.384c1.718-1.386,3.305-2.844,4.891-4.43c6.27-6.267,11.425-13.741,14.994-22.001v-0.064
		c3.769-8.653,5.812-18.171,5.812-28.138V126.087C512,121.399,511.543,116.762,510.678,112.275z M46.509,101.571
		c6.345-6.338,14.866-10.175,24.512-10.175h369.958c9.646,0,18.242,3.837,24.512,10.175c1.122,1.129,2.179,2.387,3.112,3.637
		L274.696,274.203c-5.348,4.687-11.954,7.002-18.696,7.002c-6.674,0-13.276-2.315-18.695-7.002L43.472,105.136
		C44.33,103.886,45.387,102.7,46.509,101.571z M36.334,385.92V142.735L176.658,265.15L36.405,387.435
		C36.334,386.971,36.334,386.449,36.334,385.92z M440.979,420.597H71.021c-6.281,0-12.158-1.651-17.174-4.552l147.978-128.959
		l13.815,12.018c11.561,10.046,26.028,15.134,40.36,15.134c14.406,0,28.872-5.088,40.432-15.134l13.808-12.018l147.92,128.959
		C453.137,418.946,447.26,420.597,440.979,420.597z M475.666,385.92c0,0.529,0,1.051-0.068,1.515L335.346,265.221L475.666,142.8
		V385.92z"></path>
</g>
</symbol>
<symbol viewBox="0 0 24 24" id="github" fill="currentColor">    <path d="M10.9,2.1c-4.6,0.5-8.3,4.2-8.8,8.7c-0.5,4.7,2.2,8.9,6.3,10.5C8.7,21.4,9,21.2,9,20.8v-1.6c0,0-0.4,0.1-0.9,0.1 c-1.4,0-2-1.2-2.1-1.9c-0.1-0.4-0.3-0.7-0.6-1C5.1,16.3,5,16.3,5,16.2C5,16,5.3,16,5.4,16c0.6,0,1.1,0.7,1.3,1c0.5,0.8,1.1,1,1.4,1 c0.4,0,0.7-0.1,0.9-0.2c0.1-0.7,0.4-1.4,1-1.8c-2.3-0.5-4-1.8-4-4c0-1.1,0.5-2.2,1.2-3C7.1,8.8,7,8.3,7,7.6c0-0.4,0-0.9,0.2-1.3 C7.2,6.1,7.4,6,7.5,6c0,0,0.1,0,0.1,0C8.1,6.1,9.1,6.4,10,7.3C10.6,7.1,11.3,7,12,7s1.4,0.1,2,0.3c0.9-0.9,2-1.2,2.5-1.3 c0,0,0.1,0,0.1,0c0.2,0,0.3,0.1,0.4,0.3C17,6.7,17,7.2,17,7.6c0,0.8-0.1,1.2-0.2,1.4c0.7,0.8,1.2,1.8,1.2,3c0,2.2-1.7,3.5-4,4 c0.6,0.5,1,1.4,1,2.3v2.6c0,0.3,0.3,0.6,0.7,0.5c3.7-1.5,6.3-5.1,6.3-9.3C22,6.1,16.9,1.4,10.9,2.1z"></path></symbol>
<symbol viewBox="0 0 24 24" fill="currentColor" id="instagram">
<path d="M16.017 2H7.947C6.37015 2.00185 4.85844 2.62914 3.74353 3.74424C2.62862 4.85933 2.00159 6.37115 2 7.948L2 16.018C2.00185 17.5948 2.62914 19.1066 3.74424 20.2215C4.85933 21.3364 6.37115 21.9634 7.948 21.965H16.018C17.5948 21.9631 19.1066 21.3359 20.2215 20.2208C21.3364 19.1057 21.9634 17.5938 21.965 16.017V7.947C21.9631 6.37015 21.3359 4.85844 20.2208 3.74353C19.1057 2.62862 17.5938 2.00159 16.017 2V2ZM19.957 16.017C19.957 16.5344 19.8551 17.0468 19.6571 17.5248C19.4591 18.0028 19.1689 18.4371 18.803 18.803C18.4371 19.1689 18.0028 19.4591 17.5248 19.6571C17.0468 19.8551 16.5344 19.957 16.017 19.957H7.947C6.90222 19.9567 5.90032 19.5415 5.16165 18.8026C4.42297 18.0638 4.008 17.0618 4.008 16.017V7.947C4.00827 6.90222 4.42349 5.90032 5.16235 5.16165C5.90122 4.42297 6.90322 4.008 7.948 4.008H16.018C17.0628 4.00827 18.0647 4.42349 18.8034 5.16235C19.542 5.90122 19.957 6.90322 19.957 7.948V16.018V16.017Z"></path>
<path d="M11.9818 6.81885C10.6133 6.82096 9.30136 7.36563 8.33372 8.33345C7.36609 9.30127 6.82168 10.6133 6.81982 11.9818C6.82141 13.3508 7.36585 14.6632 8.33372 15.6312C9.3016 16.5993 10.6139 17.144 11.9828 17.1458C13.3519 17.1443 14.6645 16.5997 15.6326 15.6316C16.6007 14.6635 17.1452 13.3509 17.1468 11.9818C17.1447 10.6129 16.5998 9.30073 15.6315 8.33304C14.6633 7.36535 13.3507 6.82117 11.9818 6.81985V6.81885ZM11.9818 15.1378C11.1451 15.1378 10.3426 14.8054 9.7509 14.2138C9.15922 13.6221 8.82682 12.8196 8.82682 11.9828C8.82682 11.1461 9.15922 10.3436 9.7509 9.75193C10.3426 9.16025 11.1451 8.82785 11.9818 8.82785C12.8186 8.82785 13.6211 9.16025 14.2127 9.75193C14.8044 10.3436 15.1368 11.1461 15.1368 11.9828C15.1368 12.8196 14.8044 13.6221 14.2127 14.2138C13.6211 14.8054 12.8186 15.1378 11.9818 15.1378Z"></path>
<path d="M17.1559 8.09509C17.8391 8.09509 18.3929 7.54127 18.3929 6.85809C18.3929 6.17492 17.8391 5.62109 17.1559 5.62109C16.4728 5.62109 15.9189 6.17492 15.9189 6.85809C15.9189 7.54127 16.4728 8.09509 17.1559 8.09509Z"></path>
</symbol>
<symbol viewBox="0 0 24 24" fill="currentColor" id="linkedin">
<path d="M21.959 13.7189V21.0979H17.681V14.2129C17.681 12.4829 17.062 11.3029 15.514 11.3029C14.332 11.3029 13.628 12.0989 13.319 12.8679C13.206 13.1429 13.177 13.5259 13.177 13.9109V21.0979H8.897C8.897 21.0979 8.955 9.43788 8.897 8.22888H13.177V10.0529L13.149 10.0949H13.177V10.0529C13.745 9.17788 14.76 7.92688 17.033 7.92688C19.848 7.92688 21.959 9.76688 21.959 13.7189ZM4.421 2.02588C2.958 2.02588 2 2.98588 2 4.24888C2 5.48388 2.93 6.47288 4.365 6.47288H4.393C5.886 6.47288 6.813 5.48388 6.813 4.24888C6.787 2.98588 5.887 2.02588 4.422 2.02588H4.421ZM2.254 21.0979H6.532V8.22888H2.254V21.0979Z"></path>
</symbol>
<symbol viewBox="0 0 14 14" fill="currentColor" id="long-arrow">
<path d="M10.586 5.65692L6.636 1.70692C6.45384 1.51832 6.35305 1.26571 6.35533 1.00352C6.3576 0.741321 6.46277 0.490508 6.64818 0.3051C6.83359 0.119692 7.0844 0.0145233 7.3466 0.0122448C7.6088 0.00996641 7.8614 0.110761 8.05 0.292919L13.707 5.94992C13.8002 6.04257 13.8741 6.15273 13.9246 6.27407C13.9751 6.3954 14.001 6.52551 14.001 6.65692C14.001 6.78833 13.9751 6.91844 13.9246 7.03977C13.8741 7.16111 13.8002 7.27127 13.707 7.36392L8.05 13.0209C7.95775 13.1164 7.84741 13.1926 7.7254 13.245C7.6034 13.2974 7.47218 13.325 7.3394 13.3262C7.20662 13.3273 7.07494 13.302 6.95205 13.2517C6.82915 13.2015 6.7175 13.1272 6.62361 13.0333C6.52971 12.9394 6.45546 12.8278 6.40518 12.7049C6.3549 12.582 6.3296 12.4503 6.33075 12.3175C6.3319 12.1847 6.35949 12.0535 6.4119 11.9315C6.46431 11.8095 6.54049 11.6992 6.636 11.6069L10.586 7.65692H1C0.734784 7.65692 0.48043 7.55156 0.292893 7.36403C0.105357 7.17649 0 6.92214 0 6.65692C0 6.3917 0.105357 6.13735 0.292893 5.94981C0.48043 5.76228 0.734784 5.65692 1 5.65692H10.586Z"></path>
</symbol>
<symbol aria-hidden="true" role="img" class="iconify iconify--logos" preserveAspectRatio="xMidYMid meet" viewBox="0 0 256 228" id="react" fill="currentColor"><path d="M210.483 73.824a171.49 171.49 0 0 0-8.24-2.597c.465-1.9.893-3.777 1.273-5.621c6.238-30.281 2.16-54.676-11.769-62.708c-13.355-7.7-35.196.329-57.254 19.526a171.23 171.23 0 0 0-6.375 5.848a155.866 155.866 0 0 0-4.241-3.917C100.759 3.829 77.587-4.822 63.673 3.233C50.33 10.957 46.379 33.89 51.995 62.588a170.974 170.974 0 0 0 1.892 8.48c-3.28.932-6.445 1.924-9.474 2.98C17.309 83.498 0 98.307 0 113.668c0 15.865 18.582 31.778 46.812 41.427a145.52 145.52 0 0 0 6.921 2.165a167.467 167.467 0 0 0-2.01 9.138c-5.354 28.2-1.173 50.591 12.134 58.266c13.744 7.926 36.812-.22 59.273-19.855a145.567 145.567 0 0 0 5.342-4.923a168.064 168.064 0 0 0 6.92 6.314c21.758 18.722 43.246 26.282 56.54 18.586c13.731-7.949 18.194-32.003 12.4-61.268a145.016 145.016 0 0 0-1.535-6.842c1.62-.48 3.21-.974 4.76-1.488c29.348-9.723 48.443-25.443 48.443-41.52c0-15.417-17.868-30.326-45.517-39.844Zm-6.365 70.984c-1.4.463-2.836.91-4.3 1.345c-3.24-10.257-7.612-21.163-12.963-32.432c5.106-11 9.31-21.767 12.459-31.957c2.619.758 5.16 1.557 7.61 2.4c23.69 8.156 38.14 20.213 38.14 29.504c0 9.896-15.606 22.743-40.946 31.14Zm-10.514 20.834c2.562 12.94 2.927 24.64 1.23 33.787c-1.524 8.219-4.59 13.698-8.382 15.893c-8.067 4.67-25.32-1.4-43.927-17.412a156.726 156.726 0 0 1-6.437-5.87c7.214-7.889 14.423-17.06 21.459-27.246c12.376-1.098 24.068-2.894 34.671-5.345a134.17 134.17 0 0 1 1.386 6.193ZM87.276 214.515c-7.882 2.783-14.16 2.863-17.955.675c-8.075-4.657-11.432-22.636-6.853-46.752a156.923 156.923 0 0 1 1.869-8.499c10.486 2.32 22.093 3.988 34.498 4.994c7.084 9.967 14.501 19.128 21.976 27.15a134.668 134.668 0 0 1-4.877 4.492c-9.933 8.682-19.886 14.842-28.658 17.94ZM50.35 144.747c-12.483-4.267-22.792-9.812-29.858-15.863c-6.35-5.437-9.555-10.836-9.555-15.216c0-9.322 13.897-21.212 37.076-29.293c2.813-.98 5.757-1.905 8.812-2.773c3.204 10.42 7.406 21.315 12.477 32.332c-5.137 11.18-9.399 22.249-12.634 32.792a134.718 134.718 0 0 1-6.318-1.979Zm12.378-84.26c-4.811-24.587-1.616-43.134 6.425-47.789c8.564-4.958 27.502 2.111 47.463 19.835a144.318 144.318 0 0 1 3.841 3.545c-7.438 7.987-14.787 17.08-21.808 26.988c-12.04 1.116-23.565 2.908-34.161 5.309a160.342 160.342 0 0 1-1.76-7.887Zm110.427 27.268a347.8 347.8 0 0 0-7.785-12.803c8.168 1.033 15.994 2.404 23.343 4.08c-2.206 7.072-4.956 14.465-8.193 22.045a381.151 381.151 0 0 0-7.365-13.322Zm-45.032-43.861c5.044 5.465 10.096 11.566 15.065 18.186a322.04 322.04 0 0 0-30.257-.006c4.974-6.559 10.069-12.652 15.192-18.18ZM82.802 87.83a323.167 323.167 0 0 0-7.227 13.238c-3.184-7.553-5.909-14.98-8.134-22.152c7.304-1.634 15.093-2.97 23.209-3.984a321.524 321.524 0 0 0-7.848 12.897Zm8.081 65.352c-8.385-.936-16.291-2.203-23.593-3.793c2.26-7.3 5.045-14.885 8.298-22.6a321.187 321.187 0 0 0 7.257 13.246c2.594 4.48 5.28 8.868 8.038 13.147Zm37.542 31.03c-5.184-5.592-10.354-11.779-15.403-18.433c4.902.192 9.899.29 14.978.29c5.218 0 10.376-.117 15.453-.343c-4.985 6.774-10.018 12.97-15.028 18.486Zm52.198-57.817c3.422 7.8 6.306 15.345 8.596 22.52c-7.422 1.694-15.436 3.058-23.88 4.071a382.417 382.417 0 0 0 7.859-13.026a347.403 347.403 0 0 0 7.425-13.565Zm-16.898 8.101a358.557 358.557 0 0 1-12.281 19.815a329.4 329.4 0 0 1-23.444.823c-7.967 0-15.716-.248-23.178-.732a310.202 310.202 0 0 1-12.513-19.846h.001a307.41 307.41 0 0 1-10.923-20.627a310.278 310.278 0 0 1 10.89-20.637l-.001.001a307.318 307.318 0 0 1 12.413-19.761c7.613-.576 15.42-.876 23.31-.876H128c7.926 0 15.743.303 23.354.883a329.357 329.357 0 0 1 12.335 19.695a358.489 358.489 0 0 1 11.036 20.54a329.472 329.472 0 0 1-11 20.722Zm22.56-122.124c8.572 4.944 11.906 24.881 6.52 51.026c-.344 1.668-.73 3.367-1.15 5.09c-10.622-2.452-22.155-4.275-34.23-5.408c-7.034-10.017-14.323-19.124-21.64-27.008a160.789 160.789 0 0 1 5.888-5.4c18.9-16.447 36.564-22.941 44.612-18.3ZM128 90.808c12.625 0 22.86 10.235 22.86 22.86s-10.235 22.86-22.86 22.86s-22.86-10.235-22.86-22.86s10.235-22.86 22.86-22.86Z"></path></symbol>
<symbol fill="currentColor" viewBox="0 0 32 32" id="telegram"><path d="M 26.070313 3.996094 C 25.734375 4.011719 25.417969 4.109375 25.136719 4.21875 L 25.132813 4.21875 C 24.847656 4.332031 23.492188 4.902344 21.433594 5.765625 C 19.375 6.632813 16.703125 7.757813 14.050781 8.875 C 8.753906 11.105469 3.546875 13.300781 3.546875 13.300781 L 3.609375 13.277344 C 3.609375 13.277344 3.25 13.394531 2.875 13.652344 C 2.683594 13.777344 2.472656 13.949219 2.289063 14.21875 C 2.105469 14.488281 1.957031 14.902344 2.011719 15.328125 C 2.101563 16.050781 2.570313 16.484375 2.90625 16.722656 C 3.246094 16.964844 3.570313 17.078125 3.570313 17.078125 L 3.578125 17.078125 L 8.460938 18.722656 C 8.679688 19.425781 9.949219 23.597656 10.253906 24.558594 C 10.433594 25.132813 10.609375 25.492188 10.828125 25.765625 C 10.933594 25.90625 11.058594 26.023438 11.207031 26.117188 C 11.265625 26.152344 11.328125 26.179688 11.390625 26.203125 C 11.410156 26.214844 11.429688 26.21875 11.453125 26.222656 L 11.402344 26.210938 C 11.417969 26.214844 11.429688 26.226563 11.441406 26.230469 C 11.480469 26.242188 11.507813 26.246094 11.558594 26.253906 C 12.332031 26.488281 12.953125 26.007813 12.953125 26.007813 L 12.988281 25.980469 L 15.871094 23.355469 L 20.703125 27.0625 L 20.8125 27.109375 C 21.820313 27.550781 22.839844 27.304688 23.378906 26.871094 C 23.921875 26.433594 24.132813 25.875 24.132813 25.875 L 24.167969 25.785156 L 27.902344 6.65625 C 28.007813 6.183594 28.035156 5.742188 27.917969 5.3125 C 27.800781 4.882813 27.5 4.480469 27.136719 4.265625 C 26.769531 4.046875 26.40625 3.980469 26.070313 3.996094 Z M 25.96875 6.046875 C 25.964844 6.109375 25.976563 6.101563 25.949219 6.222656 L 25.949219 6.234375 L 22.25 25.164063 C 22.234375 25.191406 22.207031 25.25 22.132813 25.308594 C 22.054688 25.371094 21.992188 25.410156 21.667969 25.28125 L 15.757813 20.75 L 12.1875 24.003906 L 12.9375 19.214844 C 12.9375 19.214844 22.195313 10.585938 22.59375 10.214844 C 22.992188 9.84375 22.859375 9.765625 22.859375 9.765625 C 22.886719 9.3125 22.257813 9.632813 22.257813 9.632813 L 10.082031 17.175781 L 10.078125 17.15625 L 4.242188 15.191406 L 4.242188 15.1875 C 4.238281 15.1875 4.230469 15.183594 4.226563 15.183594 C 4.230469 15.183594 4.257813 15.171875 4.257813 15.171875 L 4.289063 15.15625 L 4.320313 15.144531 C 4.320313 15.144531 9.53125 12.949219 14.828125 10.71875 C 17.480469 9.601563 20.152344 8.476563 22.207031 7.609375 C 24.261719 6.746094 25.78125 6.113281 25.867188 6.078125 C 25.949219 6.046875 25.910156 6.046875 25.96875 6.046875 Z"></path></symbol>
</defs>
</svg>
